# xmcd
#
# Track frame offsets: 
#        150
#        13182
#        26790
#        47714
#        62361
#        76725
#        90197
#        105205
#        120258
#        131580
#        147725
#        158287
#        178959
#        193324
#        210631
#
# Disc length: 3040 seconds
#
# Revision: 0
# Processed by: cddbd v1.5.2PL0 Copyright (c) Steve Scherf et al.
# Submitted via: ExactAudioCopy v0.99pb5
#
DISCID=bd0bde0f
DTITLE=Willie Nelson - More Best [CD02)
DYEAR=2001
DGENRE=Country
TTITLE0=Midnight Rider
TTITLE1=I'm Gonna Sit Right Down And Write Myself A letter
TTITLE2=Desperados Waiting For A Train (with Cash, Jennings And Kristo
TTITLE2=fferson)
TTITLE3=Silver Stallion (with Johnny Cash, Waylon Jennings And Kris Kr
TTITLE3=istofferson)
TTITLE4=Heart Of Gold
TTITLE5=I Love You A Thousands Ways
TTITLE6=Little Old Fashioned Karma
TTITLE7=I'm Not Trying To Forget You
TTITLE8=Heartaches Of A Fool
TTITLE9=Partners After All
TTITLE10=Islands In The Sea
TTITLE11=September Song
TTITLE12=Why Do I Have To Choose
TTITLE13=Tale It To The Limit (with Waylon Jennings)
TTITLE14=Without A Song
EXTD=
EXTT0=
EXTT1=
EXTT2=
EXTT3=
EXTT4=
EXTT5=
EXTT6=
EXTT7=
EXTT8=
EXTT9=
EXTT10=
EXTT11=
EXTT12=
EXTT13=
EXTT14=
PLAYORDER=
